0
SECTION
2
HEADER
9
$ACADVER
1
AC1015
9
$INSUNITS
70
1
0
ENDSEC
0
SECTION
2
TABLES
0
TABLE
2
LAYER
70
4
0
LAYER
2
A-WALL
70
0
62
7
6
CONTINUOUS
0
LAYER
2
A-DOOR
70
0
62
4
6
CONTINUOUS
0
LAYER
2
A-GLAZ
70
0
62
5
6
CONTINUOUS
0
LAYER
2
A-ANNO
70
0
62
2
6
CONTINUOUS
0
ENDTAB
0
ENDSEC
0
SECTION
2
ENTITIES
0
LINE
8
A-WALL
10
0
20
0
30
0
11
360
21
0
31
0
0
LINE
8
A-WALL
10
360
20
0
30
0
11
360
21
240
31
0
0
LINE
8
A-WALL
10
360
20
240
30
0
11
0
21
240
31
0
0
LINE
8
A-WALL
10
0
20
240
30
0
11
0
21
0
31
0
0
LINE
8
A-WALL
10
230
20
0
30
0
11
230
21
240
31
0
0
LINE
8
A-WALL
10
230
20
120
30
0
11
360
21
120
31
0
0
LINE
8
A-DOOR
10
230
20
48
30
0
11
260
21
48
31
0
0
LINE
8
A-GLAZ
10
55
20
240
30
0
11
145
21
240
31
0
0
LINE
8
A-GLAZ
10
275
20
240
30
0
11
335
21
240
31
0
0
TEXT
8
A-ANNO
10
70
20
170
30
0
40
10
1
LIVING ROOM
0
TEXT
8
A-ANNO
10
265
20
170
30
0
40
10
1
KITCHEN
0
TEXT
8
A-ANNO
10
270
20
70
30
0
40
10
1
OFFICE
0
ENDSEC
0
EOF
